<svg width="14" height="14" viewBox="0 0 14 14" fill="none" xmlns="http://www.w3.org/2000/svg">
<mask id="mask0_1650_6138" style="mask-type:alpha" maskUnits="userSpaceOnUse" x="0" y="0" width="14" height="14">
<rect width="14" height="14" fill="#D9D9D9"/>
</mask>
<g mask="url(#mask0_1650_6138)">
<path d="M4.90033 9.91797L7.00033 7.81797L9.10033 9.91797L9.91699 9.1013L7.81699 7.0013L9.91699 4.9013L9.10033 4.08464L7.00033 6.18464L4.90033 4.08464L4.08366 4.9013L6.18366 7.0013L4.08366 9.1013L4.90033 9.91797ZM7.00033 12.8346C6.19338 12.8346 5.43505 12.6815 4.72533 12.3753C4.0156 12.069 3.39824 11.6534 2.87324 11.1284C2.34824 10.6034 1.93262 9.98602 1.62637 9.2763C1.32012 8.56658 1.16699 7.80825 1.16699 7.0013C1.16699 6.19436 1.32012 5.43602 1.62637 4.7263C1.93262 4.01658 2.34824 3.39922 2.87324 2.87422C3.39824 2.34922 4.0156 1.93359 4.72533 1.62734C5.43505 1.32109 6.19338 1.16797 7.00033 1.16797C7.80727 1.16797 8.5656 1.32109 9.27533 1.62734C9.98505 1.93359 10.6024 2.34922 11.1274 2.87422C11.6524 3.39922 12.068 4.01658 12.3743 4.7263C12.6805 5.43602 12.8337 6.19436 12.8337 7.0013C12.8337 7.80825 12.6805 8.56658 12.3743 9.2763C12.068 9.98602 11.6524 10.6034 11.1274 11.1284C10.6024 11.6534 9.98505 12.069 9.27533 12.3753C8.5656 12.6815 7.80727 12.8346 7.00033 12.8346Z" fill="#DF1B3E"/>
</g>
</svg>
