<svg width="41" height="40" viewBox="0 0 41 40" fill="none" xmlns="http://www.w3.org/2000/svg">
<g id="credit-card-download">
<path id="Icon" d="M15.4997 28.3337L20.4997 33.3337M20.4997 33.3337L25.4997 28.3337M20.4997 33.3337V21.667M37.1663 15.0003H3.83301M9.66634 30.0003H9.16634C7.2995 30.0003 6.36608 30.0003 5.65304 29.637C5.02583 29.3174 4.5159 28.8075 4.19632 28.1803C3.83301 27.4673 3.83301 26.5338 3.83301 24.667V12.0003C3.83301 10.1335 3.83301 9.20006 4.19632 8.48702C4.5159 7.85982 5.02583 7.34988 5.65304 7.0303C6.36608 6.66699 7.2995 6.66699 9.16634 6.66699H31.833C33.6998 6.66699 34.6333 6.66699 35.3463 7.03031C35.9735 7.34988 36.4835 7.85982 36.803 8.48703C37.1663 9.20007 37.1663 10.1335 37.1663 12.0003V24.667C37.1663 26.5338 37.1663 27.4673 36.803 28.1803C36.4835 28.8075 35.9735 29.3174 35.3463 29.637C34.6333 30.0003 33.6998 30.0003 31.833 30.0003H31.333" stroke="#3A4CA1" stroke-width="3.33333" stroke-linecap="round" stroke-linejoin="round"/>
</g>
</svg>
