<svg width="16" height="16" viewBox="0 0 16 16" fill="none" xmlns="http://www.w3.org/2000/svg">
<g id="credit-card-plus" clip-path="url(#clip0_1_15299)">
<path id="Icon" d="M12.6668 13.9997V9.99967M10.6668 11.9997H14.6668M14.6668 6.66634H1.3335M14.6668 7.99967V5.46634C14.6668 4.71961 14.6668 4.34624 14.5215 4.06102C14.3937 3.81014 14.1897 3.60616 13.9388 3.47833C13.6536 3.33301 13.2802 3.33301 12.5335 3.33301H3.46683C2.72009 3.33301 2.34672 3.33301 2.06151 3.47833C1.81063 3.60616 1.60665 3.81014 1.47882 4.06102C1.3335 4.34624 1.3335 4.7196 1.3335 5.46634V10.533C1.3335 11.2797 1.3335 11.6531 1.47882 11.9383C1.60665 12.1892 1.81063 12.3932 2.06151 12.521C2.34672 12.6663 2.72009 12.6663 3.46683 12.6663H8.00016" stroke="#3A4CA1" stroke-width="1.33333" stroke-linecap="round" stroke-linejoin="round"/>
</g>
<defs>
<clipPath id="clip0_1_15299">
<rect width="16" height="16" fill="white"/>
</clipPath>
</defs>
</svg>
