<svg width="24" height="24" viewBox="0 0 24 24" fill="none" xmlns="http://www.w3.org/2000/svg">
<g id="Group">
<g id="Clip path group">
<mask id="mask0_1_19299" style="mask-type:luminance" maskUnits="userSpaceOnUse" x="0" y="0" width="24" height="24">
<g id="SVGID_2_">
<path id="Vector" d="M23.7209 9.81818H12.2791V14.4545H18.8651C18.2512 17.4 15.6837 19.0909 12.2791 19.0909C8.26047 19.0909 5.02326 15.9273 5.02326 12C5.02326 8.07273 8.26047 4.90909 12.2791 4.90909C14.0093 4.90909 15.5721 5.5091 16.8 6.49092L20.3721 3C18.1953 1.14545 15.4047 0 12.2791 0C5.46977 0 0 5.34545 0 12C0 18.6545 5.46977 24 12.2791 24C18.4186 24 24 19.6364 24 12C24 11.2909 23.8884 10.5273 23.7209 9.81818Z" fill="white"/>
</g>
</mask>
<g mask="url(#mask0_1_19299)">
<path id="Vector_2" d="M-1.11719 19.092V4.91016L8.37119 12.0011L-1.11719 19.092Z" fill="#FBBC05"/>
</g>
</g>
<g id="Clip path group_2">
<mask id="mask1_1_19299" style="mask-type:luminance" maskUnits="userSpaceOnUse" x="0" y="0" width="24" height="24">
<g id="SVGID_4_">
<path id="Vector_3" d="M23.7209 9.81818H12.2791V14.4545H18.8651C18.2512 17.4 15.6837 19.0909 12.2791 19.0909C8.26047 19.0909 5.02326 15.9273 5.02326 12C5.02326 8.07273 8.26047 4.90909 12.2791 4.90909C14.0093 4.90909 15.5721 5.5091 16.8 6.49092L20.3721 3C18.1953 1.14545 15.4047 0 12.2791 0C5.46977 0 0 5.34545 0 12C0 18.6545 5.46977 24 12.2791 24C18.4186 24 24 19.6364 24 12C24 11.2909 23.8884 10.5273 23.7209 9.81818Z" fill="white"/>
</g>
</mask>
<g mask="url(#mask1_1_19299)">
<path id="Vector_4" d="M-1.11719 4.91016L8.37119 12.0011L12.2782 8.67381L25.6735 6.54652V-1.08984H-1.11719V4.91016Z" fill="#EA4335"/>
</g>
</g>
<g id="Group_2">
<g id="Clip path group_3">
<mask id="mask2_1_19299" style="mask-type:luminance" maskUnits="userSpaceOnUse" x="0" y="0" width="24" height="24">
<g id="SVGID_6_">
<path id="Vector_5" d="M23.7209 9.81818H12.2791V14.4545H18.8651C18.2512 17.4 15.6837 19.0909 12.2791 19.0909C8.26047 19.0909 5.02326 15.9273 5.02326 12C5.02326 8.07273 8.26047 4.90909 12.2791 4.90909C14.0093 4.90909 15.5721 5.5091 16.8 6.49092L20.3721 3C18.1953 1.14545 15.4047 0 12.2791 0C5.46977 0 0 5.34545 0 12C0 18.6545 5.46977 24 12.2791 24C18.4186 24 24 19.6364 24 12C24 11.2909 23.8884 10.5273 23.7209 9.81818Z" fill="white"/>
</g>
</mask>
<g mask="url(#mask2_1_19299)">
<path id="Vector_6" d="M-1.11719 19.092L15.627 6.54652L20.0363 7.09197L25.6735 -1.08984V25.092H-1.11719V19.092Z" fill="#34A853"/>
</g>
</g>
</g>
<g id="Group_3">
<g id="Clip path group_4">
<mask id="mask3_1_19299" style="mask-type:luminance" maskUnits="userSpaceOnUse" x="0" y="0" width="24" height="24">
<g id="SVGID_8_">
<path id="Vector_7" d="M23.7209 9.81818H12.2791V14.4545H18.8651C18.2512 17.4 15.6837 19.0909 12.2791 19.0909C8.26047 19.0909 5.02326 15.9273 5.02326 12C5.02326 8.07273 8.26047 4.90909 12.2791 4.90909C14.0093 4.90909 15.5721 5.5091 16.8 6.49092L20.3721 3C18.1953 1.14545 15.4047 0 12.2791 0C5.46977 0 0 5.34545 0 12C0 18.6545 5.46977 24 12.2791 24C18.4186 24 24 19.6364 24 12C24 11.2909 23.8884 10.5273 23.7209 9.81818Z" fill="white"/>
</g>
</mask>
<g mask="url(#mask3_1_19299)">
<path id="Vector_8" d="M25.6755 25.092L8.37318 12.0011L6.14062 10.3647L25.6755 4.91016V25.092Z" fill="#4285F4"/>
</g>
</g>
</g>
</g>
</svg>
