<svg width="12" height="12" viewBox="0 0 12 12" fill="none" xmlns="http://www.w3.org/2000/svg">
<g id="schedule">
<mask id="mask0_1_15306" style="mask-type:alpha" maskUnits="userSpaceOnUse" x="0" y="0" width="12" height="12">
<rect id="Bounding box" width="12" height="12" fill="#D9D9D9"/>
</mask>
<g mask="url(#mask0_1_15306)">
<path id="schedule_2" d="M7.64951 8.34902L8.34951 7.64902L6.49951 5.79902V3.49902H5.49951V6.19902L7.64951 8.34902ZM5.99951 10.999C5.30785 10.999 4.65785 10.8678 4.04951 10.6053C3.44118 10.3428 2.91201 9.98652 2.46201 9.53652C2.01201 9.08652 1.65576 8.55736 1.39326 7.94902C1.13076 7.34069 0.999512 6.69069 0.999512 5.99902C0.999512 5.30736 1.13076 4.65736 1.39326 4.04902C1.65576 3.44069 2.01201 2.91152 2.46201 2.46152C2.91201 2.01152 3.44118 1.65527 4.04951 1.39277C4.65785 1.13027 5.30785 0.999023 5.99951 0.999023C6.69118 0.999023 7.34118 1.13027 7.94951 1.39277C8.55785 1.65527 9.08701 2.01152 9.53701 2.46152C9.98701 2.91152 10.3433 3.44069 10.6058 4.04902C10.8683 4.65736 10.9995 5.30736 10.9995 5.99902C10.9995 6.69069 10.8683 7.34069 10.6058 7.94902C10.3433 8.55736 9.98701 9.08652 9.53701 9.53652C9.08701 9.98652 8.55785 10.3428 7.94951 10.6053C7.34118 10.8678 6.69118 10.999 5.99951 10.999ZM5.99951 9.99902C7.10785 9.99902 8.0516 9.60944 8.83076 8.83027C9.60993 8.05111 9.99951 7.10736 9.99951 5.99902C9.99951 4.89069 9.60993 3.94694 8.83076 3.16777C8.0516 2.38861 7.10785 1.99902 5.99951 1.99902C4.89118 1.99902 3.94743 2.38861 3.16826 3.16777C2.3891 3.94694 1.99951 4.89069 1.99951 5.99902C1.99951 7.10736 2.3891 8.05111 3.16826 8.83027C3.94743 9.60944 4.89118 9.99902 5.99951 9.99902Z" fill="#A1A1A1"/>
</g>
</g>
</svg>
