<svg width="32" height="24" viewBox="0 0 32 24" fill="none" xmlns="http://www.w3.org/2000/svg">
<g clip-path="url(#clip0_1650_6744)">
<path d="M14.2099 16.2241H12.0124L13.3858 7.78363H15.5836L14.2099 16.2241ZM10.1638 7.78363L8.06875 13.5891L7.82085 12.3389L7.82108 12.3394L7.08165 8.5436C7.08165 8.5436 6.99224 7.78363 6.03923 7.78363H2.5758L2.53516 7.92655C2.53516 7.92655 3.59428 8.14691 4.8338 8.8913L6.74298 16.2244H9.0326L12.5288 7.78363H10.1638ZM27.4482 16.2241H29.466L27.7067 7.78341H25.9402C25.1245 7.78341 24.9258 8.41242 24.9258 8.41242L21.6484 16.2241H23.9392L24.3973 14.9704H27.1908L27.4482 16.2241ZM25.0301 13.2384L26.1847 10.0798L26.8343 13.2384H25.0301ZM21.8202 9.81338L22.1338 8.00083C22.1338 8.00083 21.1661 7.63281 20.1574 7.63281C19.0669 7.63281 16.4772 8.10943 16.4772 10.427C16.4772 12.6076 19.5166 12.6347 19.5166 13.7801C19.5166 14.9254 16.7903 14.7202 15.8906 13.998L15.5639 15.8931C15.5639 15.8931 16.5451 16.3698 18.0443 16.3698C19.5439 16.3698 21.8062 15.5933 21.8062 13.48C21.8062 11.2855 18.7395 11.0811 18.7395 10.127C18.7397 9.17262 20.8799 9.29522 21.8202 9.81338Z" fill="#2566AF"/>
<path d="M7.82108 12.337L7.08165 8.54122C7.08165 8.54122 6.99224 7.78125 6.03923 7.78125H2.5758L2.53516 7.92417C2.53516 7.92417 4.19982 8.26916 5.79652 9.56174C7.32324 10.7972 7.82108 12.337 7.82108 12.337Z" fill="#E6A540"/>
</g>
<defs>
<clipPath id="clip0_1650_6744">
<rect width="32" height="24" fill="white"/>
</clipPath>
</defs>
</svg>
