<svg width="14" height="14" viewBox="0 0 14 14" fill="none" xmlns="http://www.w3.org/2000/svg">
<g clip-path="url(#clip0_1650_6738)">
<path d="M2.91602 8.7513C2.37242 8.7513 2.10062 8.7513 1.88622 8.6625C1.60035 8.54409 1.37323 8.31697 1.25482 8.0311C1.16602 7.8167 1.16602 7.5449 1.16602 7.0013V3.03464C1.16602 2.38124 1.16602 2.05454 1.29317 1.80498C1.40503 1.58546 1.5835 1.40698 1.80303 1.29513C2.05259 1.16797 2.37929 1.16797 3.03268 1.16797H6.99935C7.54295 1.16797 7.81475 1.16797 8.02915 1.25678C8.31501 1.37519 8.54213 1.60231 8.66054 1.88817C8.74935 2.10257 8.74935 2.37437 8.74935 2.91797M7.11602 12.8346H10.966C11.6194 12.8346 11.9461 12.8346 12.1957 12.7075C12.4152 12.5956 12.5937 12.4171 12.7055 12.1976C12.8327 11.9481 12.8327 11.6214 12.8327 10.968V7.11797C12.8327 6.46457 12.8327 6.13788 12.7055 5.88831C12.5937 5.66879 12.4152 5.49031 12.1957 5.37846C11.9461 5.2513 11.6194 5.2513 10.966 5.2513H7.11602C6.46262 5.2513 6.13592 5.2513 5.88636 5.37846C5.66684 5.49031 5.48836 5.66879 5.37651 5.88831C5.24935 6.13788 5.24935 6.46457 5.24935 7.11797V10.968C5.24935 11.6214 5.24935 11.9481 5.37651 12.1976C5.48836 12.4171 5.66684 12.5956 5.88636 12.7075C6.13592 12.8346 6.46262 12.8346 7.11602 12.8346Z" stroke="#26283F" stroke-width="1.16667" stroke-linecap="round" stroke-linejoin="round"/>
</g>
<defs>
<clipPath id="clip0_1650_6738">
<rect width="14" height="14" fill="white"/>
</clipPath>
</defs>
</svg>
