<svg width="16" height="16" viewBox="0 0 16 16" fill="none" xmlns="http://www.w3.org/2000/svg">
<mask id="mask0_1650_6904" style="mask-type:alpha" maskUnits="userSpaceOnUse" x="0" y="0" width="16" height="16">
<rect width="16" height="16" fill="#D9D9D9"/>
</mask>
<g mask="url(#mask0_1650_6904)">
<path d="M7.99974 14.6831C7.82196 14.6831 7.65252 14.6497 7.49141 14.5831C7.3303 14.5164 7.18307 14.422 7.04974 14.2997L1.69974 8.94974C1.57752 8.81641 1.48307 8.66919 1.41641 8.50807C1.34974 8.34696 1.31641 8.17752 1.31641 7.99974C1.31641 7.82196 1.34974 7.64974 1.41641 7.48307C1.48307 7.31641 1.57752 7.17196 1.69974 7.04974L7.04974 1.69974C7.18307 1.56641 7.3303 1.46918 7.49141 1.40807C7.65252 1.34696 7.82196 1.31641 7.99974 1.31641C8.17752 1.31641 8.34974 1.34696 8.51641 1.40807C8.68307 1.46918 8.82752 1.56641 8.94974 1.69974L14.2997 7.04974C14.4331 7.17196 14.5303 7.31641 14.5914 7.48307C14.6525 7.64974 14.6831 7.82196 14.6831 7.99974C14.6831 8.17752 14.6525 8.34696 14.5914 8.50807C14.5303 8.66919 14.4331 8.81641 14.2997 8.94974L8.94974 14.2997C8.82752 14.422 8.68307 14.5164 8.51641 14.5831C8.34974 14.6497 8.17752 14.6831 7.99974 14.6831ZM7.33307 8.66641H8.66641V4.66641H7.33307V8.66641ZM7.99974 10.6664C8.18863 10.6664 8.34696 10.6025 8.47474 10.4747C8.60252 10.347 8.66641 10.1886 8.66641 9.99974C8.66641 9.81085 8.60252 9.65252 8.47474 9.52474C8.34696 9.39696 8.18863 9.33307 7.99974 9.33307C7.81085 9.33307 7.65252 9.39696 7.52474 9.52474C7.39696 9.65252 7.33307 9.81085 7.33307 9.99974C7.33307 10.1886 7.39696 10.347 7.52474 10.4747C7.65252 10.6025 7.81085 10.6664 7.99974 10.6664Z" fill="#A78736"/>
</g>
</svg>
