<svg width="20" height="22" viewBox="0 0 20 22" fill="none" xmlns="http://www.w3.org/2000/svg">
<path d="M10.0001 8.49824V11.8316M10.0001 15.1649H10.0085M8.84622 4.24134L1.99215 16.0802C1.61198 16.7369 1.42189 17.0652 1.44999 17.3347C1.47449 17.5697 1.59763 17.7833 1.78876 17.9222C2.0079 18.0816 2.38728 18.0816 3.14605 18.0816H16.8542C17.613 18.0816 17.9923 18.0816 18.2115 17.9222C18.4026 17.7833 18.5258 17.5697 18.5503 17.3347C18.5783 17.0652 18.3883 16.7369 18.0081 16.0802L11.154 4.24134C10.7752 3.58704 10.5858 3.25989 10.3387 3.15001C10.1232 3.05416 9.87709 3.05416 9.66154 3.15001C9.41443 3.25989 9.22503 3.58704 8.84622 4.24134Z" stroke="#E97000" stroke-width="1.5" stroke-linecap="round" stroke-linejoin="round"/>
</svg>
