<svg width="14" height="14" viewBox="0 0 14 14" fill="none" xmlns="http://www.w3.org/2000/svg">
<mask id="mask0_1650_4588" style="mask-type:alpha" maskUnits="userSpaceOnUse" x="0" y="0" width="14" height="14">
<rect width="14" height="14" fill="#D9D9D9"/>
</mask>
<g mask="url(#mask0_1650_4588)">
<path d="M7.00016 11.6654C6.67933 11.6654 6.40468 11.5511 6.1762 11.3227C5.94773 11.0942 5.8335 10.8195 5.8335 10.4987C5.8335 10.1779 5.94773 9.90321 6.1762 9.67474C6.40468 9.44627 6.67933 9.33203 7.00016 9.33203C7.321 9.33203 7.59565 9.44627 7.82412 9.67474C8.05259 9.90321 8.16683 10.1779 8.16683 10.4987C8.16683 10.8195 8.05259 11.0942 7.82412 11.3227C7.59565 11.5511 7.321 11.6654 7.00016 11.6654ZM7.00016 8.16536C6.67933 8.16536 6.40468 8.05113 6.1762 7.82266C5.94773 7.59418 5.8335 7.31953 5.8335 6.9987C5.8335 6.67786 5.94773 6.40321 6.1762 6.17474C6.40468 5.94627 6.67933 5.83203 7.00016 5.83203C7.321 5.83203 7.59565 5.94627 7.82412 6.17474C8.05259 6.40321 8.16683 6.67786 8.16683 6.9987C8.16683 7.31953 8.05259 7.59418 7.82412 7.82266C7.59565 8.05113 7.321 8.16536 7.00016 8.16536ZM7.00016 4.66536C6.67933 4.66536 6.40468 4.55113 6.1762 4.32266C5.94773 4.09418 5.8335 3.81953 5.8335 3.4987C5.8335 3.17786 5.94773 2.90321 6.1762 2.67474C6.40468 2.44627 6.67933 2.33203 7.00016 2.33203C7.321 2.33203 7.59565 2.44627 7.82412 2.67474C8.05259 2.90321 8.16683 3.17786 8.16683 3.4987C8.16683 3.81953 8.05259 4.09418 7.82412 4.32266C7.59565 4.55113 7.321 4.66536 7.00016 4.66536Z" fill="#1C1B1F"/>
</g>
</svg>
