<svg width="16" height="16" viewBox="0 0 16 16" fill="none" xmlns="http://www.w3.org/2000/svg">
<mask id="mask0_1650_6833" style="mask-type:alpha" maskUnits="userSpaceOnUse" x="0" y="0" width="16" height="16">
<rect width="16" height="16" fill="#D9D9D9"/>
</mask>
<g mask="url(#mask0_1650_6833)">
<path d="M5.73268 15L4.46602 12.8667L2.06602 12.3333L2.29935 9.86667L0.666016 8L2.29935 6.13333L2.06602 3.66667L4.46602 3.13333L5.73268 1L7.99935 1.96667L10.266 1L11.5327 3.13333L13.9327 3.66667L13.6994 6.13333L15.3327 8L13.6994 9.86667L13.9327 12.3333L11.5327 12.8667L10.266 15L7.99935 14.0333L5.73268 15ZM7.29935 10.3667L11.066 6.6L10.1327 5.63333L7.29935 8.46667L5.86602 7.06667L4.93268 8L7.29935 10.3667Z" fill="#147A3D"/>
</g>
</svg>
