<svg width="20" height="20" viewBox="0 0 20 20" fill="none" xmlns="http://www.w3.org/2000/svg">
<path d="M1.79497 3.98005C1.25 5.04961 1.25 6.44974 1.25 9.25V10.75C1.25 13.5503 1.25 14.9504 1.79497 16.02C2.27433 16.9608 3.03924 17.7257 3.98005 18.205C5.04961 18.75 6.44974 18.75 9.25 18.75H10.75C13.5503 18.75 14.9504 18.75 16.02 18.205C16.9608 17.7257 17.7257 16.9608 18.205 16.02C18.75 14.9504 18.75 13.5503 18.75 10.75V9.25C18.75 6.44974 18.75 5.04961 18.205 3.98005C17.7257 3.03924 16.9608 2.27433 16.02 1.79497C14.9504 1.25 13.5503 1.25 10.75 1.25H9.25C6.44974 1.25 5.04961 1.25 3.98005 1.79497C3.03924 2.27433 2.27433 3.03924 1.79497 3.98005Z" fill="url(#paint0_linear_1650_6732)"/>
<path d="M1.41576 5.17635C1.25 6.1184 1.25 7.36838 1.25 9.25162V10.7516C1.25 13.5519 1.25 14.952 1.79497 16.0216C2.27433 16.9624 3.03924 17.7273 3.98005 18.2067C5.04961 18.7516 6.44974 18.7516 9.25 18.7516H10.75C13.5503 18.7516 14.9504 18.7516 16.02 18.2067C16.9608 17.7273 17.7257 16.9624 18.205 16.0216C18.75 14.952 18.75 13.5519 18.75 10.7516V9.25162C18.75 6.45136 18.75 5.05123 18.205 3.98167C17.7423 3.07359 17.0136 2.32939 16.1175 1.84766L1.41576 5.17635Z" fill="url(#paint1_linear_1650_6732)"/>
<path d="M18.5675 14.9102C18.4871 15.3325 18.3711 15.6925 18.2036 16.0213C17.7242 16.9621 16.9593 17.727 16.0185 18.2064C14.9809 18.7351 13.6323 18.7509 10.9962 18.7514H10.0352V16.7744L18.5675 14.9102Z" fill="url(#paint2_linear_1650_6732)"/>
<path d="M10.7508 1.25H9.25084C8.70605 1.25 8.21426 1.25 7.76758 1.25401V3.73157L16.1167 1.84516C16.085 1.8281 16.053 1.81136 16.0208 1.79497C15.427 1.49243 14.7314 1.35784 13.7508 1.29797C12.9651 1.25 11.9965 1.25 10.7508 1.25Z" fill="url(#paint3_linear_1650_6732)"/>
<path d="M18.7501 10.858C18.75 12.7365 18.7467 13.9747 18.5691 14.9084L15.6016 15.5568V11.1346L18.7501 10.4023V10.858Z" fill="url(#paint4_linear_1650_6732)"/>
<path fill-rule="evenodd" clip-rule="evenodd" d="M9.33862 8.36534C9.33862 7.96366 9.66702 7.80917 10.2109 7.80917C10.9909 7.80917 11.9761 8.04606 12.7561 8.46833V6.04799C11.9043 5.70811 11.0627 5.57422 10.2109 5.57422C8.12764 5.57422 6.74219 6.66595 6.74219 8.48893C6.74219 11.3315 10.642 10.8784 10.642 12.104C10.642 12.5778 10.2315 12.7322 9.65676 12.7322C8.80497 12.7322 7.71713 12.3821 6.85508 11.9083V14.3595C7.8095 14.7715 8.77418 14.9466 9.65676 14.9466C11.7914 14.9466 13.2589 13.8858 13.2589 12.0422C13.2487 8.973 9.33862 9.51886 9.33862 8.36534Z" fill="white"/>
<defs>
<linearGradient id="paint0_linear_1650_6732" x1="1.25" y1="1.25" x2="6.99791" y2="5.31381" gradientUnits="userSpaceOnUse">
<stop stop-color="#392993"/>
<stop offset="1" stop-color="#4B47B9"/>
</linearGradient>
<linearGradient id="paint1_linear_1650_6732" x1="1.909" y1="5.36066" x2="14.5979" y2="15.8272" gradientUnits="userSpaceOnUse">
<stop stop-color="#594BB9"/>
<stop offset="1" stop-color="#60A8F2"/>
</linearGradient>
<linearGradient id="paint2_linear_1650_6732" x1="10.0352" y1="16.8476" x2="18.7485" y2="18.7514" gradientUnits="userSpaceOnUse">
<stop stop-color="#61A2EF"/>
<stop offset="1" stop-color="#58E6FD"/>
</linearGradient>
<linearGradient id="paint3_linear_1650_6732" x1="7.76758" y1="2.49477" x2="18.7508" y2="1.25" gradientUnits="userSpaceOnUse">
<stop stop-color="#534EBE"/>
<stop offset="1" stop-color="#6875E2"/>
</linearGradient>
<linearGradient id="paint4_linear_1650_6732" x1="15.6016" y1="11.1712" x2="18.7501" y2="14.9421" gradientUnits="userSpaceOnUse">
<stop stop-color="#71A5F3"/>
<stop offset="1" stop-color="#6CC3FA"/>
</linearGradient>
</defs>
</svg>
